<svg width="90" height="84.00000000000001" xmlns="http://www.w3.org/2000/svg" fill="none">
 <defs>
  <clipPath id="clip0">
   <rect id="svg_1" fill="white" height="83.9999" width="90.0001"/>
  </clipPath>
  <linearGradient y2="-0.61521" x2="0.50117" y1="1.51941" x1="0.50117" id="paint0_linear">
   <stop stop-color="#FCC2B1"/>
   <stop stop-color="#D9420B" offset="0.8848"/>
  </linearGradient>
  <linearGradient y2="-0.09419" x2="0.49965" y1="1.31132" x1="0.49965" id="paint1_linear">
   <stop stop-color="#DEEDC9"/>
   <stop stop-color="#8BBA25" offset="0.6606"/>
  </linearGradient>
  <linearGradient y2="-0.03166" x2="0.49964" y1="1.31483" x1="0.49964" id="paint2_linear">
   <stop stop-color="#C2EBFA"/>
   <stop stop-color="#26A8DE" offset="1"/>
  </linearGradient>
 </defs>
 <g>
  <title>Layer 1</title>
  <g id="svg_2" clip-path="url(#clip0)">
   <path id="svg_3" fill="url(#paint0_linear)" d="m39.3791,82.9701l-37.0143,-17.3012c-3.15307,-1.5104 -3.15307,-3.8447 0,-5.2178l12.8865,-6.0417l23.9907,11.2595c3.1531,1.5104 8.2254,1.5104 11.2414,0l23.9907,-11.2595l12.8865,6.0417c3.1531,1.5104 3.1531,3.8447 0,5.2178l-37.0143,17.3012c-2.8789,1.3731 -7.9512,1.3731 -10.9672,0z" clip-rule="evenodd" fill-rule="evenodd"/>
   <path id="svg_4" fill="url(#paint1_linear)" d="m39.3791,61.6868l-37.0143,-17.3012c-3.15307,-1.5104 -3.15307,-3.8447 0,-5.2178l12.6123,-5.9044l24.402,11.3968c3.1531,1.5105 8.2254,1.5105 11.2414,0l24.402,-11.3968l12.6123,5.9044c3.1531,1.5104 3.1531,3.8447 0,5.2178l-37.0143,17.3012c-3.1531,1.5104 -8.2254,1.5104 -11.2414,0z" clip-rule="evenodd" fill-rule="evenodd"/>
   <path id="svg_5" fill="url(#paint2_linear)" d="m39.3796,40.953l-37.01431,-17.3012c-3.15307,-1.5104 -3.15307,-3.8447 0,-5.2178l37.01431,-17.30118c3.1531,-1.51042 8.2254,-1.51042 11.2414,0l37.0143,17.30118c3.153,1.5104 3.153,3.8447 0,5.2178l-37.0143,17.3012c-3.1531,1.3731 -8.2254,1.3731 -11.2414,0z" clip-rule="evenodd" fill-rule="evenodd"/>
  </g>
  <text style="cursor: move;" xml:space="preserve" text-anchor="start" font-family="Noto Sans JP" font-size="24" id="svg_6" y="50.50747" x="17.68657" stroke-width="0" stroke="#000" fill="#fc0000">TEST</text>
 </g>
</svg>
